<?xml version="1.0" encoding="UTF-8" standalone="no"?>
<!DOCTYPE svg PUBLIC "-//W3C//DTD SVG 1.1//EN" "http://www.w3.org/Graphics/SVG/1.1/DTD/svg11.dtd">
<svg xmlns="http://www.w3.org/2000/svg" version="1.1" viewBox="0 0 552 689">
<g stroke-width="2.00" fill="none" stroke-linecap="butt">
<path stroke="#808080" vector-effect="non-scaling-stroke" d="
  M 260.93 564.09
  C 279.87 565.41 303.70 559.07 322.01 551.53
  C 329.47 548.45 342.58 541.96 342.30 533.56
  C 341.72 516.47 342.55 501.71 341.62 490.19
  Q 340.55 476.96 337.79 464.02
  A 0.67 0.67 0.0 0 1 338.23 463.25
  Q 343.40 461.50 348.70 462.79
  Q 356.18 464.61 375.63 473.02
  C 390.17 479.30 396.24 474.06 407.52 465.91
  C 418.30 458.13 426.74 451.07 432.62 439.61
  Q 439.89 425.41 443.62 408.99
  C 444.62 404.60 444.81 400.29 441.78 397.20
  C 427.22 382.36 427.85 366.37 427.01 346.20
  C 426.44 332.47 422.17 326.06 413.56 313.94
  C 401.63 297.13 412.39 275.91 421.96 261.25
  Q 423.41 259.03 425.67 257.63
  C 436.62 250.82 439.60 268.99 440.50 275.51
  C 443.24 295.37 443.21 310.62 442.80 332.55
  C 442.65 340.20 442.05 346.97 441.14 354.24
  Q 440.93 355.84 441.10 356.13
  Q 442.12 357.82 442.57 355.90
  Q 446.64 338.50 448.74 324.21
  C 450.51 312.11 453.14 298.71 452.95 287.52
  Q 452.81 279.33 451.45 269.56
  C 450.01 259.17 448.68 248.01 446.55 238.46
  Q 441.09 214.07 430.43 191.49
  C 402.59 132.59 337.60 106.87 277.24 99.55
  C 262.68 97.78 250.02 100.06 235.83 102.60
  C 180.89 112.43 125.57 140.18 101.13 193.75
  Q 88.54 221.35 83.75 251.50
  C 82.27 260.79 80.26 274.21 80.05 285.27
  Q 79.85 295.72 80.41 299.81
  C 82.14 312.60 83.53 325.67 86.21 338.10
  Q 87.96 346.20 89.88 354.27
  Q 90.22 355.71 90.53 356.27
  Q 91.43 357.89 91.26 356.05
  Q 88.18 322.28 90.61 288.51
  C 91.10 281.68 92.99 248.17 107.50 258.01
  Q 109.40 259.31 110.61 261.26
  C 115.95 269.95 121.22 278.42 123.42 288.51
  C 126.26 301.52 121.88 310.24 114.66 320.49
  C 109.14 328.31 105.61 336.10 105.44 345.74
  C 105.12 364.01 105.37 382.51 92.07 395.93
  C 88.99 399.04 87.71 402.18 88.47 406.26
  Q 91.69 423.48 100.28 440.45
  C 107.17 454.07 122.91 465.39 135.85 473.20
  C 143.03 477.54 149.45 476.37 156.90 473.09
  Q 169.19 467.67 181.90 463.33
  Q 188.13 461.21 194.24 463.55
  A 0.86 0.85 20.1 0 1 194.74 464.62
  C 189.17 481.29 188.88 497.93 188.50 516.89
  C 188.24 529.87 183.35 537.33 197.23 545.52
  C 215.74 556.45 239.66 562.61 260.93 564.09"
/>
<path stroke="#808080" vector-effect="non-scaling-stroke" d="
  M 135.01 415.82
  C 135.98 421.17 138.99 425.14 144.08 427.17
  C 173.69 438.95 206.38 423.01 228.80 404.27
  Q 234.92 399.15 237.23 394.70
  C 250.35 369.46 193.81 341.30 177.35 334.11
  C 163.96 328.26 146.14 323.80 134.18 334.39
  C 123.32 344.01 119.67 355.59 122.32 369.59
  Q 123.61 376.41 124.51 378.71
  Q 131.55 396.78 135.01 415.82"
/>
<path stroke="#808080" vector-effect="non-scaling-stroke" d="
  M 293.46 387.38
  C 294.37 405.41 330.76 422.99 345.23 427.74
  C 358.73 432.17 375.65 432.92 388.91 426.84
  C 392.69 425.11 396.56 421.94 397.25 418.00
  C 400.20 401.18 405.42 386.74 409.10 374.56
  Q 416.68 349.49 396.91 333.32
  Q 388.46 326.42 377.17 328.17
  Q 360.47 330.76 345.97 338.52
  C 329.76 347.19 292.41 366.49 293.46 387.38"
/>
<path stroke="#808080" vector-effect="non-scaling-stroke" d="
  M 265.57 474.72
  C 267.97 482.05 272.63 493.39 282.95 488.96
  C 300.64 481.36 296.54 463.02 292.32 448.44
  Q 287.85 432.98 282.03 418.00
  C 278.79 409.67 272.18 396.94 261.56 401.84
  C 258.07 403.45 254.51 407.80 252.89 411.16
  C 246.12 425.22 229.62 464.13 236.93 479.69
  C 241.63 489.70 258.48 495.62 262.65 481.04
  C 262.99 479.85 263.81 474.86 264.90 474.41
  A 0.51 0.51 0.0 0 1 265.57 474.72"
/>
</g>
<path fill="#000000" d="
  M 0.00 0.00
  L 552.00 0.00
  L 552.00 689.00
  L 0.00 689.00
  L 0.00 0.00
  Z
  M 260.93 564.09
  C 279.87 565.41 303.70 559.07 322.01 551.53
  C 329.47 548.45 342.58 541.96 342.30 533.56
  C 341.72 516.47 342.55 501.71 341.62 490.19
  Q 340.55 476.96 337.79 464.02
  A 0.67 0.67 0.0 0 1 338.23 463.25
  Q 343.40 461.50 348.70 462.79
  Q 356.18 464.61 375.63 473.02
  C 390.17 479.30 396.24 474.06 407.52 465.91
  C 418.30 458.13 426.74 451.07 432.62 439.61
  Q 439.89 425.41 443.62 408.99
  C 444.62 404.60 444.81 400.29 441.78 397.20
  C 427.22 382.36 427.85 366.37 427.01 346.20
  C 426.44 332.47 422.17 326.06 413.56 313.94
  C 401.63 297.13 412.39 275.91 421.96 261.25
  Q 423.41 259.03 425.67 257.63
  C 436.62 250.82 439.60 268.99 440.50 275.51
  C 443.24 295.37 443.21 310.62 442.80 332.55
  C 442.65 340.20 442.05 346.97 441.14 354.24
  Q 440.93 355.84 441.10 356.13
  Q 442.12 357.82 442.57 355.90
  Q 446.64 338.50 448.74 324.21
  C 450.51 312.11 453.14 298.71 452.95 287.52
  Q 452.81 279.33 451.45 269.56
  C 450.01 259.17 448.68 248.01 446.55 238.46
  Q 441.09 214.07 430.43 191.49
  C 402.59 132.59 337.60 106.87 277.24 99.55
  C 262.68 97.78 250.02 100.06 235.83 102.60
  C 180.89 112.43 125.57 140.18 101.13 193.75
  Q 88.54 221.35 83.75 251.50
  C 82.27 260.79 80.26 274.21 80.05 285.27
  Q 79.85 295.72 80.41 299.81
  C 82.14 312.60 83.53 325.67 86.21 338.10
  Q 87.96 346.20 89.88 354.27
  Q 90.22 355.71 90.53 356.27
  Q 91.43 357.89 91.26 356.05
  Q 88.18 322.28 90.61 288.51
  C 91.10 281.68 92.99 248.17 107.50 258.01
  Q 109.40 259.31 110.61 261.26
  C 115.95 269.95 121.22 278.42 123.42 288.51
  C 126.26 301.52 121.88 310.24 114.66 320.49
  C 109.14 328.31 105.61 336.10 105.44 345.74
  C 105.12 364.01 105.37 382.51 92.07 395.93
  C 88.99 399.04 87.71 402.18 88.47 406.26
  Q 91.69 423.48 100.28 440.45
  C 107.17 454.07 122.91 465.39 135.85 473.20
  C 143.03 477.54 149.45 476.37 156.90 473.09
  Q 169.19 467.67 181.90 463.33
  Q 188.13 461.21 194.24 463.55
  A 0.86 0.85 20.1 0 1 194.74 464.62
  C 189.17 481.29 188.88 497.93 188.50 516.89
  C 188.24 529.87 183.35 537.33 197.23 545.52
  C 215.74 556.45 239.66 562.61 260.93 564.09
  Z"
/>
<path fill="#ffffff" d="
  M 260.93 564.09
  C 239.66 562.61 215.74 556.45 197.23 545.52
  C 183.35 537.33 188.24 529.87 188.50 516.89
  C 188.88 497.93 189.17 481.29 194.74 464.62
  A 0.86 0.85 20.1 0 0 194.24 463.55
  Q 188.13 461.21 181.90 463.33
  Q 169.19 467.67 156.90 473.09
  C 149.45 476.37 143.03 477.54 135.85 473.20
  C 122.91 465.39 107.17 454.07 100.28 440.45
  Q 91.69 423.48 88.47 406.26
  C 87.71 402.18 88.99 399.04 92.07 395.93
  C 105.37 382.51 105.12 364.01 105.44 345.74
  C 105.61 336.10 109.14 328.31 114.66 320.49
  C 121.88 310.24 126.26 301.52 123.42 288.51
  C 121.22 278.42 115.95 269.95 110.61 261.26
  Q 109.40 259.31 107.50 258.01
  C 92.99 248.17 91.10 281.68 90.61 288.51
  Q 88.18 322.28 91.26 356.05
  Q 91.43 357.89 90.53 356.27
  Q 90.22 355.71 89.88 354.27
  Q 87.96 346.20 86.21 338.10
  C 83.53 325.67 82.14 312.60 80.41 299.81
  Q 79.85 295.72 80.05 285.27
  C 80.26 274.21 82.27 260.79 83.75 251.50
  Q 88.54 221.35 101.13 193.75
  C 125.57 140.18 180.89 112.43 235.83 102.60
  C 250.02 100.06 262.68 97.78 277.24 99.55
  C 337.60 106.87 402.59 132.59 430.43 191.49
  Q 441.09 214.07 446.55 238.46
  C 448.68 248.01 450.01 259.17 451.45 269.56
  Q 452.81 279.33 452.95 287.52
  C 453.14 298.71 450.51 312.11 448.74 324.21
  Q 446.64 338.50 442.57 355.90
  Q 442.12 357.82 441.10 356.13
  Q 440.93 355.84 441.14 354.24
  C 442.05 346.97 442.65 340.20 442.80 332.55
  C 443.21 310.62 443.24 295.37 440.50 275.51
  C 439.60 268.99 436.62 250.82 425.67 257.63
  Q 423.41 259.03 421.96 261.25
  C 412.39 275.91 401.63 297.13 413.56 313.94
  C 422.17 326.06 426.44 332.47 427.01 346.20
  C 427.85 366.37 427.22 382.36 441.78 397.20
  C 444.81 400.29 444.62 404.60 443.62 408.99
  Q 439.89 425.41 432.62 439.61
  C 426.74 451.07 418.30 458.13 407.52 465.91
  C 396.24 474.06 390.17 479.30 375.63 473.02
  Q 356.18 464.61 348.70 462.79
  Q 343.40 461.50 338.23 463.25
  A 0.67 0.67 0.0 0 0 337.79 464.02
  Q 340.55 476.96 341.62 490.19
  C 342.55 501.71 341.72 516.47 342.30 533.56
  C 342.58 541.96 329.47 548.45 322.01 551.53
  C 303.70 559.07 279.87 565.41 260.93 564.09
  Z
  M 135.01 415.82
  C 135.98 421.17 138.99 425.14 144.08 427.17
  C 173.69 438.95 206.38 423.01 228.80 404.27
  Q 234.92 399.15 237.23 394.70
  C 250.35 369.46 193.81 341.30 177.35 334.11
  C 163.96 328.26 146.14 323.80 134.18 334.39
  C 123.32 344.01 119.67 355.59 122.32 369.59
  Q 123.61 376.41 124.51 378.71
  Q 131.55 396.78 135.01 415.82
  Z
  M 293.46 387.38
  C 294.37 405.41 330.76 422.99 345.23 427.74
  C 358.73 432.17 375.65 432.92 388.91 426.84
  C 392.69 425.11 396.56 421.94 397.25 418.00
  C 400.20 401.18 405.42 386.74 409.10 374.56
  Q 416.68 349.49 396.91 333.32
  Q 388.46 326.42 377.17 328.17
  Q 360.47 330.76 345.97 338.52
  C 329.76 347.19 292.41 366.49 293.46 387.38
  Z
  M 265.57 474.72
  C 267.97 482.05 272.63 493.39 282.95 488.96
  C 300.64 481.36 296.54 463.02 292.32 448.44
  Q 287.85 432.98 282.03 418.00
  C 278.79 409.67 272.18 396.94 261.56 401.84
  C 258.07 403.45 254.51 407.80 252.89 411.16
  C 246.12 425.22 229.62 464.13 236.93 479.69
  C 241.63 489.70 258.48 495.62 262.65 481.04
  C 262.99 479.85 263.81 474.86 264.90 474.41
  A 0.51 0.51 0.0 0 1 265.57 474.72
  Z"
/>
<path fill="#000000" d="
  M 144.08 427.17
  C 138.99 425.14 135.98 421.17 135.01 415.82
  Q 131.55 396.78 124.51 378.71
  Q 123.61 376.41 122.32 369.59
  C 119.67 355.59 123.32 344.01 134.18 334.39
  C 146.14 323.80 163.96 328.26 177.35 334.11
  C 193.81 341.30 250.35 369.46 237.23 394.70
  Q 234.92 399.15 228.80 404.27
  C 206.38 423.01 173.69 438.95 144.08 427.17
  Z"
/>
<path fill="#000000" d="
  M 345.23 427.74
  C 330.76 422.99 294.37 405.41 293.46 387.38
  C 292.41 366.49 329.76 347.19 345.97 338.52
  Q 360.47 330.76 377.17 328.17
  Q 388.46 326.42 396.91 333.32
  Q 416.68 349.49 409.10 374.56
  C 405.42 386.74 400.20 401.18 397.25 418.00
  C 396.56 421.94 392.69 425.11 388.91 426.84
  C 375.65 432.92 358.73 432.17 345.23 427.74
  Z"
/>
<path fill="#000000" d="
  M 264.90 474.41
  C 263.81 474.86 262.99 479.85 262.65 481.04
  C 258.48 495.62 241.63 489.70 236.93 479.69
  C 229.62 464.13 246.12 425.22 252.89 411.16
  C 254.51 407.80 258.07 403.45 261.56 401.84
  C 272.18 396.94 278.79 409.67 282.03 418.00
  Q 287.85 432.98 292.32 448.44
  C 296.54 463.02 300.64 481.36 282.95 488.96
  C 272.63 493.39 267.97 482.05 265.57 474.72
  A 0.51 0.51 0.0 0 0 264.90 474.41
  Z"
/>
</svg>
